<svg width="142" height="60" viewBox="0 0 142 60" xmlns="http://www.w3.org/2000/svg">
    <g fill="none" fill-rule="evenodd">
        <path d="M35.431 10.344a.4.4 0 0 1 .8 0 .4.4 0 0 1-.8 0zm9.875 4.08a.399.399 0 1 1 0 .798.399.399 0 0 1 0-.797zm5.288-5.374c.22 0 .4.18.4.398a.4.4 0 1 1-.4-.398zm-6.829 2.536L40.64 14.82l2.671 2.738.93-1.844a1.378 1.378 0 0 1-.331-.892 1.396 1.396 0 0 1 2.793 0c0 .77-.626 1.393-1.397 1.393-.066 0-.127-.01-.192-.019l-1.225 2.432a.5.5 0 0 1-.804.124l-6.896-7.066a1.44 1.44 0 0 1-.358.05 1.395 1.395 0 0 1-1.397-1.392c0-.769.626-1.393 1.397-1.393.77 0 1.396.624 1.396 1.393 0 .277-.082.533-.223.75l2.939 3.012 3.207-3.318a.504.504 0 0 1 .251-.141l5.804-1.28a1.396 1.396 0 0 1 2.787.08c0 .77-.626 1.395-1.398 1.395-.438 0-.826-.208-1.083-.524l-5.746 1.268zm6.83 17.169a.4.4 0 0 1 .399.397.4.4 0 0 1-.798 0c0-.218.178-.397.398-.397zm18.514-5.094v-3.465a.499.499 0 0 0-.85-.352l-3.593 3.584a.479.479 0 0 0-.093.128l-1.716 3.423-15.3 6.781v-5.587l1.656.838c-.006.047-.014.093-.014.141a1.395 1.395 0 0 0 2.793 0c0-.767-.626-1.392-1.398-1.392-.36 0-.684.14-.932.362l-2.379-1.204a.5.5 0 0 0-.724.443v7.165a.496.496 0 0 0 .702.455l16.165-7.164c.022-.011.036-.027.055-.04a.407.407 0 0 0 .083-.059c.026-.024.044-.054.064-.083.013-.018.03-.031.042-.051l1.76-3.51 2.683-2.677v2.382c0 .077.017.153.053.222l1.744 3.479v13.417a.497.497 0 0 0 .996 0V27.36a.5.5 0 0 0-.053-.222L69.11 23.66zm-51.19 5.537a.4.4 0 0 1 .8 0c0 .219-.179.397-.4.397-.22 0-.4-.178-.4-.397zm7.186-.046a.398.398 0 1 1 .796.002.398.398 0 0 1-.796-.002zm4.408 5.104a.498.498 0 0 1-.626.724l-9.917-4.558a1.373 1.373 0 0 1-.651.168 1.395 1.395 0 0 1-1.397-1.392 1.397 1.397 0 0 1 2.794 0c0 .153-.031.298-.077.435l8.103 3.724-1.865-2.869a1.36 1.36 0 0 1-.374.058c-.77 0-1.396-.624-1.396-1.394 0-.768.626-1.392 1.396-1.392.772 0 1.397.624 1.397 1.392 0 .274-.081.528-.218.743l2.831 4.361zm-7.602-32.37a.398.398 0 1 1 0 .796.398.398 0 0 1 0-.797zm12.972 3.98c0 .22-.177.398-.397.398a.4.4 0 0 1-.401-.399.4.4 0 0 1 .798 0zm31.533 1.51a.398.398 0 1 1 .797 0 .398.398 0 0 1-.797 0zM50.594 15.22a.398.398 0 1 1 0-.797.398.398 0 0 1 0 .797zM39.873 9.847a.4.4 0 0 1-.4-.4.398.398 0 1 1 .4.4zM21.91 3.677c.749 0 1.357-.593 1.392-1.331l3.907-1.3 5.948 4.407a1.318 1.318 0 0 0-.071.412 1.398 1.398 0 0 0 2.794 0c0-.768-.627-1.393-1.395-1.393-.26 0-.502.077-.71.2l-3.34-2.476 11.058 4.135a.439.439 0 0 0 .113.029l3.198.399v.4h-3.204a.502.502 0 0 0-.319.113l-1.03.842a1.35 1.35 0 0 0-.38-.06c-.77 0-1.396.627-1.396 1.394a1.397 1.397 0 0 0 2.793 0c0-.262-.076-.504-.202-.713l.71-.58h3.529a.499.499 0 0 0 .499-.498v-.774l10.102 1.26 2.842 1.214-7.332 4.346a1.375 1.375 0 0 0-.823-.273c-.77 0-1.395.625-1.395 1.392a1.395 1.395 0 1 0 2.763-.284l7.865-4.661c.018-.011.027-.029.043-.04l8.546 3.65a.504.504 0 0 0 .47-.041.496.496 0 0 0 .223-.415v-1.585L70.761 9.8a.497.497 0 0 0-.354-.85h-1.6l-.847-.78c.159-.226.254-.499.254-.794a1.398 1.398 0 0 0-2.796 0 1.395 1.395 0 0 0 1.687 1.361l1.167 1.077a.502.502 0 0 0 .34.133h.592l-.946.941a.505.505 0 0 0-.146.352v1.035L56.235 7.2a.478.478 0 0 0-.134-.036L41.789 5.379 27.475.026c-.01-.004-.022-.003-.034-.006a.587.587 0 0 0-.25-.007c-.016.003-.035.002-.05.007L22.984 1.4a1.392 1.392 0 0 0-2.47.883c0 .769.626 1.394 1.397 1.394zm21.598 26.869c.221 0 .401.179.401.397a.401.401 0 0 1-.8 0 .4.4 0 0 1 .4-.397zm-11.02 4.098a.399.399 0 1 1-.001-.794.399.399 0 0 1 0 .794zm11.02-5.093c-.77 0-1.396.624-1.396 1.392 0 .593.375 1.097.897 1.299v1.787h-4.264l1.6-4.717a.499.499 0 0 0-.757-.569l-6.315 4.351a1.397 1.397 0 0 0-2.182 1.151 1.396 1.396 0 0 0 2.793 0c0-.114-.018-.224-.044-.331l5.076-3.499-1.34 3.953c-.008.025-.005.051-.01.077-.005.028-.016.053-.016.08 0 .009.003.014.003.02.002.036.012.068.021.103.007.03.013.059.024.086.012.028.033.052.052.077.02.027.036.054.058.077.02.019.047.03.072.047.031.02.06.041.093.055.007.002.01.006.017.009a.491.491 0 0 0 .159.026h5.459c.277 0 .5-.224.5-.5v-2.283c.523-.202.898-.706.898-1.299 0-.768-.628-1.392-1.398-1.392zm0-3.583a.4.4 0 0 1-.4-.398c0-.22.181-.397.4-.397a.4.4 0 0 1 .401.397.4.4 0 0 1-.4.398zm-20.203-2.19a.4.4 0 0 1 .402-.397.4.4 0 0 1 0 .797.4.4 0 0 1-.402-.4zm23.75-4.975a.398.398 0 1 1 0-.796.4.4 0 0 1 .401.398.4.4 0 0 1-.4.398zm14.37-6.17a.4.4 0 0 1 .4.398.398.398 0 0 1-.8 0c0-.22.18-.397.4-.397zM54.24 25.969a.398.398 0 1 1 0-.795.398.398 0 0 1 0 .795zm-5.388-1.805a.398.398 0 1 1 0-.797.398.398 0 0 1 0 .797zm-4.844.11v-2.334l4.345-.577v1.105a1.39 1.39 0 0 0 .5 2.691c.77 0 1.397-.625 1.397-1.395a1.39 1.39 0 0 0-.9-1.296V21.23l3.064-.407 4.47 1.167-2.189 2.27a1.365 1.365 0 0 0-.455-.081c-.77 0-1.396.624-1.396 1.392a1.396 1.396 0 0 0 2.794 0 1.38 1.38 0 0 0-.178-.667l2.733-2.835a.498.498 0 0 0-.234-.826l-2.936-.767 11.857-1.577a.49.49 0 0 0 .285-.141l1.798-1.792a.497.497 0 0 0 .145-.351v-1.792a.497.497 0 0 0-.497-.497h-1.797a.503.503 0 0 0-.354.145l-1.666 1.664-7.8.676 1.104-1.685 2.483-.992a1.387 1.387 0 0 0 2.24-1.102 1.397 1.397 0 0 0-2.792 0c0 .083.01.162.024.242l-2.473.986a.5.5 0 0 0-.231.19l-1.62 2.47-7.556.655v.001a1.395 1.395 0 0 0-2.514.83 1.393 1.393 0 0 0 2.78.146l16.622-1.441a.496.496 0 0 0 .31-.145l1.65-1.646h1.09v1.088l-1.529 1.527-14.208 1.89h-.001l-12.522 1.664-3.486-.154c-.024-.001-.042.008-.067.01-.035.004-.067.006-.104.017a.577.577 0 0 0-.087.043c-.02.012-.044.015-.065.031l-7.03 5.324-4.011-2.46a1.395 1.395 0 0 0-1.294-1.913c-.77 0-1.398.625-1.398 1.393 0 .77.627 1.393 1.398 1.393.21 0 .408-.05.59-.135l4.482 2.748a.497.497 0 0 0 .563-.027l7.16-5.422 3.349.148a.429.429 0 0 0 .087-.004l3.071-.407v2.2c-.522.2-.897.704-.897 1.297a1.396 1.396 0 0 0 2.794 0c0-.593-.375-1.096-.898-1.297zM29.495 13.03a.399.399 0 0 1-.798 0 .398.398 0 0 1 .798 0zM27.7 5.865c0 .22-.182.399-.402.399a.398.398 0 0 1 0-.796.4.4 0 0 1 .402.397zm1.395 8.56c.772 0 1.398-.625 1.398-1.394 0-.768-.626-1.394-1.398-1.394-.201 0-.393.046-.568.124L22.8 6.05l2.62-1.043.555.44a1.348 1.348 0 0 0-.072.42 1.396 1.396 0 0 0 2.794 0c0-.769-.626-1.394-1.398-1.394-.256 0-.493.075-.702.197l-.78-.622a.498.498 0 0 0-.495-.073l-3.595 1.43a.5.5 0 0 0-.304.362.491.491 0 0 0 .137.451l6.264 6.248c-.08.173-.123.364-.123.566 0 .769.626 1.394 1.395 1.394zm-8.98-5.375a.4.4 0 1 1 0 .799.4.4 0 0 1 0-.799zm10.776.797a.4.4 0 1 1 .002-.796.4.4 0 0 1-.002.796zm-10.776.994c.203 0 .394-.045.568-.122l4.467 4.455c.064.064.145.11.232.131l14.37 3.582a.497.497 0 0 0 .296-.018c.017-.007.03-.017.048-.026a.523.523 0 0 0 .107-.071c.007-.006.015-.01.023-.015.009-.01.012-.022.02-.032a.554.554 0 0 0 .096-.165c.004-.011.011-.021.015-.035.005-.019 0-.037.002-.056.006-.035.008-.069.006-.103a.617.617 0 0 0-.05-.18.437.437 0 0 0-.058-.085c-.012-.015-.017-.034-.03-.047l-8.062-8.04c.077-.172.124-.363.124-.566a1.398 1.398 0 0 0-2.794 0 1.397 1.397 0 0 0 1.965 1.27l6.788 6.77-12.49-3.114-4.37-4.36c.078-.172.123-.363.123-.566a1.396 1.396 0 0 0-2.793 0c0 .768.626 1.393 1.397 1.393zM59.57 25.968a.398.398 0 1 1 0-.794.398.398 0 0 1 0 .794zm3.652-4.445c.22 0 .4.18.4.398a.4.4 0 0 1-.8 0 .4.4 0 0 1 .4-.398zm0 1.791c.772 0 1.397-.625 1.397-1.393s-.625-1.392-1.397-1.392c-.77 0-1.396.624-1.396 1.392 0 .204.044.395.123.568l-1.812 1.81a1.395 1.395 0 0 0-1.963 1.271 1.396 1.396 0 1 0 2.67-.567l1.812-1.811c.173.078.365.122.566.122zm-46.7.864a.4.4 0 0 1-.399-.4.398.398 0 1 1 .399.4zM30.89 21.59a.399.399 0 1 1 .002.797.399.399 0 0 1-.002-.797zM22.31 27.36a.4.4 0 0 1-.798 0 .4.4 0 0 1 .798 0zm-4.39-3.582a1.38 1.38 0 0 0-.123-.567l1.82-1.815v2.382c0 .083.02.165.06.238l1.277 2.335a1.388 1.388 0 0 0-.439 1.009 1.396 1.396 0 0 0 2.792 0c0-.767-.625-1.393-1.395-1.393-.009 0-.019.004-.028.004l-1.27-2.32v-2.87l8.91 1.476a1.397 1.397 0 0 0 2.766-.27 1.393 1.393 0 0 0-2.593-.71l-9.5-1.573c-.02-.003-.04-.002-.062-.002-.007 0-.012-.004-.02-.004-.004 0-.008.003-.01.003a.488.488 0 0 0-.168.033c-.012.004-.021.01-.033.015a.474.474 0 0 0-.14.094L17.09 22.51a1.396 1.396 0 0 0-1.966 1.27 1.396 1.396 0 0 0 2.794 0zm12.972 7.564a.4.4 0 1 1 .002-.796.4.4 0 0 1-.002.796zm7.159-6.17a.398.398 0 1 1 0 .795.398.398 0 0 1 0-.796zm-5.76 5.77c0-.17-.036-.332-.092-.482l5.096-3.722a1.396 1.396 0 0 0 2.153-1.17c0-.767-.627-1.391-1.397-1.391s-1.397.624-1.397 1.392c0 .127.024.247.054.364l-5.175 3.779c-.193-.1-.41-.162-.64-.162-.77 0-1.397.624-1.397 1.392a1.396 1.396 0 0 0 2.794 0zm76.989-20.6a.4.4 0 0 1-.8 0 .4.4 0 0 1 .8 0zm-9.875 4.082a.398.398 0 1 1 .001.795.398.398 0 0 1-.001-.795zm-27.05 8.956a.398.398 0 1 1 0 .796.4.4 0 0 1-.4-.399.4.4 0 0 1 .4-.397zM94.115 9.05a.398.398 0 1 1 0 .796.398.398 0 0 1 0-.797zm1.083 1.267a1.394 1.394 0 0 1-1.083.524 1.397 1.397 0 0 1-1.398-1.394 1.396 1.396 0 0 1 2.787-.081l5.804 1.28c.094.02.182.07.251.14l3.207 3.32 2.939-3.013a1.37 1.37 0 0 1-.223-.75c0-.769.625-1.393 1.396-1.393.771 0 1.397.624 1.397 1.393s-.626 1.393-1.397 1.393a1.44 1.44 0 0 1-.358-.051l-6.896 7.066a.497.497 0 0 1-.803-.124l-1.225-2.432c-.066.009-.128.019-.193.019a1.395 1.395 0 0 1-1.397-1.393 1.396 1.396 0 0 1 2.793 0c0 .341-.127.65-.33.892l.929 1.844 2.67-2.738-3.124-3.234-5.746-1.268zm-1.083 18.437a.398.398 0 1 1 0 .796.398.398 0 0 1 0-.796zm-20.26-1.616a.493.493 0 0 0-.052.222v13.536a.497.497 0 0 0 .996 0V27.48L76.544 24a.485.485 0 0 0 .053-.222v-2.382l2.683 2.677 1.76 3.51c.012.02.03.033.042.051.02.03.039.059.064.083a.407.407 0 0 0 .083.059c.02.013.033.029.055.04L97.45 34.98a.505.505 0 0 0 .475-.037.496.496 0 0 0 .226-.418V27.36a.5.5 0 0 0-.725-.443l-2.378 1.204a1.39 1.39 0 0 0-.932-.362c-.772 0-1.398.625-1.398 1.392 0 .77.626 1.394 1.398 1.394.77 0 1.396-.624 1.396-1.394 0-.048-.01-.094-.015-.141l1.657-.838v5.587L81.853 26.98l-1.716-3.423a.479.479 0 0 0-.093-.128l-3.592-3.584a.499.499 0 0 0-.85.352v3.465l-1.745 3.478zm52.935 2.059a.399.399 0 0 1-.8 0 .399.399 0 1 1 .8 0zm-7.186-.046a.4.4 0 1 1-.797 0 .4.4 0 0 1 .797 0zm-1.577.743a1.38 1.38 0 0 1-.218-.743c0-.768.625-1.392 1.397-1.392.77 0 1.396.624 1.396 1.392 0 .77-.626 1.394-1.396 1.394a1.36 1.36 0 0 1-.374-.058l-1.866 2.87 8.104-3.725a1.373 1.373 0 0 1-.077-.435 1.397 1.397 0 0 1 2.794 0c0 .767-.625 1.392-1.397 1.392-.237 0-.458-.064-.651-.168l-9.917 4.558a.504.504 0 0 1-.586-.127.498.498 0 0 1-.04-.597l2.831-4.361zm4.771-28.01a.4.4 0 0 1 .4.398.4.4 0 0 1-.798 0c0-.22.179-.398.398-.398zm-12.972 3.98c0-.22.177-.397.397-.397a.4.4 0 0 1 .401.397.4.4 0 0 1-.4.399.397.397 0 0 1-.398-.399zm-31.533 1.51a.399.399 0 1 1-.8-.002.399.399 0 0 1 .8.003zm15.822 7.846a.399.399 0 1 1-.001-.794.399.399 0 0 1 0 .794zm10.721-5.374a.4.4 0 1 1 .002-.798.4.4 0 0 1-.002.798zm17.962-6.17c.771 0 1.397-.625 1.397-1.394a1.392 1.392 0 0 0-2.47-.882L117.57.02c-.015-.005-.034-.004-.05-.007a.4.4 0 0 0-.18-.007.567.567 0 0 0-.07.014c-.012.003-.024.002-.034.006l-14.314 5.353L88.61 7.164a.478.478 0 0 0-.135.036l-11.877 5.075V11.24a.503.503 0 0 0-.146-.352l-.946-.941h.592a.502.502 0 0 0 .34-.133l1.167-1.077a1.395 1.395 0 0 0 1.687-1.362 1.398 1.398 0 0 0-2.796 0c0 .296.095.569.254.796l-.846.78h-1.601a.497.497 0 0 0-.354.85l1.652 1.645v1.585a.496.496 0 0 0 .693.457l8.546-3.651c.016.011.025.029.044.04l7.864 4.66a1.395 1.395 0 0 0 1.367 1.678c.77 0 1.397-.624 1.397-1.393 0-.767-.626-1.392-1.396-1.392-.31 0-.592.103-.823.273l-7.332-4.346 2.842-1.215 10.102-1.259v.774c0 .274.224.497.499.497h3.528l.711.581a1.368 1.368 0 0 0-.202.713 1.397 1.397 0 0 0 2.793 0c0-.767-.626-1.393-1.397-1.393a1.35 1.35 0 0 0-.378.06l-1.031-.843a.502.502 0 0 0-.319-.112h-3.204v-.401l3.198-.4a.439.439 0 0 0 .113-.028l11.058-4.135-3.34 2.475a1.394 1.394 0 0 0-.71-.199c-.768 0-1.395.625-1.395 1.393a1.397 1.397 0 0 0 2.794 0c0-.144-.028-.28-.07-.412l5.947-4.407 3.907 1.3c.035.738.643 1.33 1.392 1.33zm-21.598 26.869c.22 0 .4.179.4.397a.4.4 0 0 1-.801 0 .4.4 0 0 1 .4-.397zm11.021 4.098a.4.4 0 0 1-.4-.399.4.4 0 0 1 .8 0 .4.4 0 0 1-.4.399zm-11.021-5.093c-.77 0-1.398.624-1.398 1.392 0 .593.375 1.097.898 1.299v2.284c0 .275.223.499.5.499h5.459a.491.491 0 0 0 .16-.026l.016-.01c.034-.013.061-.034.093-.054.025-.016.051-.028.072-.047.022-.023.039-.05.058-.077.02-.025.04-.05.052-.077.011-.027.017-.056.024-.086.01-.035.019-.067.021-.103 0-.006.003-.011.003-.02 0-.027-.011-.052-.016-.08-.005-.026-.002-.052-.01-.077l-1.34-3.953 5.076 3.499a1.406 1.406 0 0 0-.044.331 1.396 1.396 0 0 0 2.793 0 1.397 1.397 0 0 0-2.182-1.15l-6.315-4.352a.5.5 0 0 0-.757.569l1.6 4.717H101.7v-1.787c.522-.202.897-.706.897-1.299 0-.768-.627-1.392-1.396-1.392zm0-3.583a.4.4 0 0 1-.4-.398.4.4 0 0 1 .8 0 .4.4 0 0 1-.4.398zm20.203-2.19a.401.401 0 0 1-.801 0 .4.4 0 0 1 .801 0zm-23.75-4.975a.4.4 0 0 1-.401-.398.4.4 0 0 1 .799 0c0 .22-.178.398-.398.398zm-14.37-6.17c.22 0 .4.179.4.398 0 .22-.18.398-.4.398a.399.399 0 0 1-.4-.398.4.4 0 0 1 .4-.397zm7.185 13.335a.398.398 0 1 1 0-.796.398.398 0 0 1 0 .796zm5.388-1.805a.399.399 0 1 1 0-.795.399.399 0 0 1 0 .795zm4.844.11c-.523.2-.898.704-.898 1.297a1.397 1.397 0 0 0 2.794 0c0-.593-.375-1.096-.897-1.297v-2.2l3.07.407a.425.425 0 0 0 .067.005l.021-.001 3.35-.148 7.16 5.422a.497.497 0 0 0 .562.027l4.483-2.748c.181.085.378.135.589.135.77 0 1.398-.624 1.398-1.393a1.396 1.396 0 1 0-2.692.52l-4.01 2.46-7.032-5.324c-.02-.016-.043-.02-.064-.031a.577.577 0 0 0-.087-.043c-.037-.01-.07-.013-.104-.017-.025-.002-.043-.011-.067-.01l-3.486.154-12.522-1.665-14.209-1.89-1.529-1.526v-1.088h1.09l1.65 1.646a.496.496 0 0 0 .31.145l16.622 1.44a1.392 1.392 0 1 0 .266-.975v-.001l-7.556-.654-1.62-2.47a.5.5 0 0 0-.231-.19l-2.473-.987c.013-.08.024-.159.024-.242a1.396 1.396 0 0 0-2.792 0 1.387 1.387 0 0 0 2.24 1.102l2.483.992 1.104 1.685-7.8-.676-1.666-1.664a.503.503 0 0 0-.354-.145h-1.797a.497.497 0 0 0-.497.497v1.792c0 .13.051.258.145.351l1.798 1.792a.49.49 0 0 0 .285.141l11.857 1.577-2.936.767a.498.498 0 0 0-.234.826l2.733 2.835c-.109.2-.178.424-.178.667a1.397 1.397 0 0 0 2.794 0c0-.768-.626-1.392-1.396-1.392-.16 0-.312.031-.455.081l-2.188-2.27 4.47-1.167 3.063.407v1.238c-.526.201-.9.705-.9 1.296a1.397 1.397 0 0 0 2.794 0 1.39 1.39 0 0 0-.897-1.296v-1.105l4.345.577v2.334zm14.514-11.242a.399.399 0 0 1 .799 0c0 .22-.179.398-.4.398-.219 0-.399-.178-.399-.398zm1.796-7.166a.4.4 0 0 1 .4-.397.398.398 0 1 1 0 .796c-.219 0-.4-.179-.4-.399zm-1.396 8.56c.769 0 1.396-.625 1.396-1.394 0-.202-.044-.393-.124-.566l6.265-6.248a.491.491 0 0 0 .136-.451.5.5 0 0 0-.304-.362l-3.595-1.43a.498.498 0 0 0-.495.073l-.78.622a1.387 1.387 0 0 0-.703-.197c-.77 0-1.396.625-1.396 1.393a1.396 1.396 0 0 0 2.793 0c0-.146-.03-.285-.072-.418l.554-.44 2.62 1.042-5.727 5.712a1.389 1.389 0 0 0-.568-.124c-.772 0-1.398.626-1.398 1.394 0 .769.626 1.394 1.398 1.394zm8.98-5.375a.4.4 0 0 1 .399.398.4.4 0 0 1-.798 0 .4.4 0 0 1 .4-.398zm-10.776.797a.4.4 0 1 1 .398-.4.4.4 0 0 1-.398.4zm10.776.994c.771 0 1.397-.625 1.397-1.393a1.397 1.397 0 0 0-2.793 0c0 .203.045.394.123.567l-4.37 4.359-12.49 3.113 6.789-6.768a1.397 1.397 0 0 0 1.965-1.27 1.398 1.398 0 0 0-2.795-.001c0 .203.046.394.125.567l-8.062 8.039c-.013.013-.02.032-.031.047a.438.438 0 0 0-.09.174.487.487 0 0 0-.018.09.44.44 0 0 0 .006.104c.003.019-.003.037.003.056.003.014.01.024.014.035a.56.56 0 0 0 .095.165c.01.01.012.022.02.032.009.006.017.009.024.015.033.03.07.052.107.071.017.01.032.019.048.026a.498.498 0 0 0 .296.018l14.37-3.582a.493.493 0 0 0 .232-.13l4.467-4.456c.174.077.365.122.568.122zM85.14 25.968a.398.398 0 1 1-.002-.794.398.398 0 0 1 .002.794zm-3.652-4.445c.22 0 .4.18.4.398a.4.4 0 0 1-.799 0 .4.4 0 0 1 .4-.398zm0 1.791c.2 0 .393-.044.566-.122l1.813 1.81a1.378 1.378 0 0 0-.123.568 1.396 1.396 0 0 0 2.793 0 1.395 1.395 0 0 0-1.964-1.271l-1.812-1.81c.08-.173.124-.364.124-.568 0-.768-.627-1.392-1.397-1.392-.772 0-1.397.624-1.397 1.392 0 .768.625 1.393 1.397 1.393zm46.7.864a.398.398 0 1 1 .002-.797.398.398 0 0 1-.002.797zM113.82 21.59a.398.398 0 1 1 0 .797.398.398 0 0 1 0-.797zm8.582 5.771a.399.399 0 1 1 .797.003.399.399 0 0 1-.797-.003zm4.39-3.582a1.396 1.396 0 0 0 2.794 0 1.396 1.396 0 0 0-1.966-1.27l-2.671-2.665a.474.474 0 0 0-.14-.094l-.034-.015a.488.488 0 0 0-.167-.033c-.003 0-.007-.003-.012-.003-.007 0-.012.004-.019.004-.022 0-.041-.001-.063.002l-9.499 1.573a1.393 1.393 0 1 0-1.195 2.103c.676 0 1.243-.485 1.368-1.123l8.91-1.475v2.87l-1.27 2.319c-.01 0-.02-.004-.028-.004-.77 0-1.395.626-1.395 1.393a1.396 1.396 0 0 0 2.792 0c0-.397-.17-.755-.439-1.01l1.277-2.334a.498.498 0 0 0 .06-.238v-2.382l1.82 1.815a1.38 1.38 0 0 0-.123.567zm-12.972 7.564a.4.4 0 1 1 .398-.4.4.4 0 0 1-.398.4zm-7.159-6.17a.398.398 0 1 1 .001.795.398.398 0 0 1 0-.796zm5.76 5.77a1.397 1.397 0 0 0 2.795 0c0-.768-.627-1.392-1.396-1.392-.232 0-.447.062-.64.162l-5.176-3.779c.03-.117.054-.237.054-.364 0-.768-.627-1.392-1.397-1.392s-1.396.624-1.396 1.392a1.396 1.396 0 0 0 2.152 1.17l5.096 3.72c-.056.151-.091.314-.091.483zM68.278 4.334c-.005.032-.012.064-.011.096.002.032.013.06.02.091.008.031.012.064.026.093.015.03.037.052.054.08.02.023.03.05.053.07l1.897 1.793a.496.496 0 0 0 .34.137.483.483 0 0 0 .094-.012c.081.017.169.015.25-.01l1.353-.405 1.353.406c.084.024.17.026.252.009.032.006.062.012.092.012.126 0 .25-.048.344-.137l1.896-1.792c.023-.02.034-.048.05-.073.02-.026.043-.05.058-.078.014-.03.016-.062.024-.092.01-.032.019-.06.02-.092.002-.032-.007-.063-.01-.096-.005-.031-.006-.061-.016-.09-.011-.033-.033-.061-.05-.09-.013-.026-.022-.052-.041-.073l-.008-.007c-.004-.004-.004-.007-.008-.012-.022-.022-.049-.033-.072-.051-.026-.019-.051-.042-.08-.055-.029-.014-.06-.018-.09-.025-.033-.008-.062-.02-.095-.02-.031-.003-.062.005-.093.009-.031.006-.064.006-.094.016-.032.011-.059.032-.088.05-.025.013-.052.021-.076.041l-1.848 1.58-1.291-.34c-.016-.005-.036-.004-.053-.007-.025-.003-.05-.008-.076-.008-.02 0-.042.004-.063.008-.022.002-.043.001-.063.007l-1.29.34-1.851-1.58c-.022-.02-.05-.028-.073-.042-.03-.017-.057-.038-.088-.049-.03-.01-.063-.01-.096-.016-.03-.004-.062-.012-.093-.01-.031.001-.061.013-.092.021-.03.007-.063.01-.092.025-.029.013-.052.036-.078.055-.024.018-.054.029-.074.051l-.007.012c-.002.002-.008.003-.01.007-.02.021-.026.047-.04.072-.019.03-.04.058-.05.09-.012.03-.012.06-.016.091zm4.076 19.844a.4.4 0 1 1 .002-.796.4.4 0 0 1-.002.796zm0-11.544a.4.4 0 0 1 .4.397.4.4 0 0 1-.798 0c0-.22.179-.397.398-.397zm1.4.397a1.398 1.398 0 0 0-2.795 0c0 .592.374 1.097.898 1.297v8.153c-.524.201-.898.706-.898 1.298a1.396 1.396 0 0 0 2.795 0c0-.592-.376-1.097-.899-1.298v-8.153c.523-.2.898-.705.898-1.297zm-1.399.399a.4.4 0 1 1 .002-.796.4.4 0 0 1-.002.796z" fill="#2091C3"/>
        <path d="m0 47.952 9.572 10.074v-9.923h.726v11.748L.725 49.7v9.773H0V47.952zm42.692 0c3.205 0 5.913 2.639 5.913 5.837 0 3.196-2.708 5.835-5.913 5.835-3.071 0-5.681-2.42-5.897-5.433h-2.542v5.66l-9.573-10.15v9.773h-.725V47.952l9.572 10.074v-9.924h.726v5.382h2.534c.164-3.059 2.786-5.532 5.905-5.532zm-25.558-.226 4.763 11.748h-.74l-1.528-3.74h-5.005l-1.528 3.74h-.741l4.779-11.748zm25.558.904c-2.844 0-5.187 2.353-5.187 5.159 0 2.805 2.343 5.157 5.187 5.157 2.827 0 5.187-2.367 5.187-5.157 0-2.806-2.36-5.159-5.187-5.159zm-25.558.936-2.238 5.489h4.46l-2.222-5.49z" fill="#2791C4"/>
        <path d="m131.689 47.451 9.023 9.427v-8.937H142V60l-9.023-9.412v8.892h-1.288v-5.24h-2.617c-.264 3.074-2.88 5.438-6.005 5.438-3.3 0-6.032-2.631-6.032-5.953 0-3.305 2.732-5.983 6.032-5.983 3.032 0 5.584 2.264 5.976 5.197h2.646v-5.488zm-41.338-.017 9.024 9.428v-8.938h1.288v12.06l-9.021-9.412v8.892h-1.29v-12.03zm-13.623-.168 2.348 12.197h-1.32l-1.488-7.805h-.03l-3.73 8.28-3.713-8.28h-.03l-1.489 7.805h-1.32l2.349-12.197 4.204 9.687 4.22-9.687zm30.394.46c1.29 0 2.38.658 2.993 1.79l-1.028.658c-.46-.796-1.013-1.255-1.996-1.255-1.027 0-1.917.735-1.917 1.79 0 .995 1.029 1.455 1.81 1.806l.768.337c1.504.658 2.777 1.408 2.777 3.244 0 2.02-1.626 3.566-3.636 3.566-1.857 0-3.238-1.193-3.607-2.984l1.258-.352c.17 1.178 1.075 2.143 2.318 2.143s2.378-.95 2.378-2.25c0-1.347-1.058-1.805-2.133-2.296l-.705-.305c-1.351-.613-2.517-1.302-2.517-2.955 0-1.79 1.52-2.937 3.237-2.937zm-43.437.199v11.538h-1.288V47.925h1.288zm50.818 0v11.538h-1.29V47.925h1.29zm-61.128 0c1.735 0 3.146.229 4.512 1.392 1.32 1.132 1.918 2.678 1.918 4.392 0 1.683-.614 3.169-1.888 4.3-1.38 1.224-2.762 1.454-4.572 1.454h-2.149V47.925zm33.94 0v1.194h-4.71v3.427h4.572v1.193h-4.573v4.53h4.711v1.194h-6V47.925h6zm35.752 1.01c-2.655 0-4.743 2.158-4.743 4.775 0 2.602 2.118 4.775 4.743 4.775 2.623 0 4.74-2.173 4.74-4.775 0-2.617-2.086-4.774-4.74-4.774zm-69.646.183h-.936v9.151h.936c1.412 0 2.593-.198 3.653-1.193.951-.887 1.442-2.097 1.442-3.383 0-1.315-.507-2.585-1.504-3.458-1.06-.934-2.225-1.117-3.59-1.117z" fill="#2C3C4C"/>
    </g>
</svg>
